<?xml version="1.0" standalone="no"?>
<!DOCTYPE svg PUBLIC "-//W3C//DTD SVG 20010904//EN"
 "http://www.w3.org/TR/2001/REC-SVG-20010904/DTD/svg10.dtd">
<svg version="1.0" xmlns="http://www.w3.org/2000/svg"
 width="300.000000pt" height="300.000000pt" viewBox="0 0 300.000000 300.000000"
 preserveAspectRatio="xMidYMid meet">
<metadata>
Created by potrace 1.11, written by Peter Selinger 2001-2013
</metadata>
<g transform="translate(0.000000,300.000000) scale(0.100000,-0.100000)"
fill="#000000" stroke="none">
<path d="M1347 2495 c-154 -53 -277 -233 -273 -398 0 -31 -1 -54 -3 -52 -13
14 -107 -148 -114 -196 -2 -8 -7 -21 -12 -29 -14 -23 -18 -238 -6 -320 12 -79
67 -306 78 -324 4 -6 8 -17 8 -26 4 -36 17 -80 25 -80 5 0 7 -7 3 -16 -3 -8
-1 -25 6 -37 6 -12 17 -49 26 -81 15 -59 34 -89 68 -108 32 -17 129 -29 237
-28 l105 0 0 -132 1 -132 -46 -24 c-54 -28 -111 -81 -154 -142 l-31 -45 -65 1
c-133 1 -215 -63 -240 -188 -4 -21 -5 -38 -1 -38 3 0 6 -15 7 -34 1 -70 -38
-66 620 -66 391 0 594 3 594 10 0 6 -20 39 -45 75 -41 57 -43 65 -25 65 55 0
128 -80 121 -132 -2 -16 8 -18 89 -18 l91 0 -4 45 c-5 54 -60 169 -96 202 -42
37 -89 64 -124 71 -41 8 -122 8 -167 0 -33 -6 -37 -3 -75 45 -45 58 -139 126
-212 153 -26 9 -50 19 -52 20 -6 5 -10 50 -17 177 l-6 117 29 2 c52 3 58 4 68
10 6 3 26 9 46 12 20 3 49 10 64 16 15 6 30 8 33 5 3 -2 10 -1 16 4 6 4 43 19
81 31 39 12 88 30 110 40 22 10 69 30 105 46 116 50 112 45 105 138 -9 129
-28 307 -40 366 -2 14 -7 45 -9 70 -3 25 -8 56 -11 70 -5 27 -13 78 -20 135
-17 129 -79 378 -102 409 -37 50 -116 86 -243 112 -28 5 -210 5 -252 -1 -24
-3 -28 0 -28 21 0 27 -33 98 -59 128 -43 49 -140 73 -204 51z m-160 -2327 c-2
-7 -15 -41 -27 -76 -23 -62 -23 -62 -36 -36 -20 38 -17 77 6 102 22 24 65 31
57 10z"/>
</g>
</svg>
